<svg width="24" height="24" viewBox="0 0 24 24" fill="none" xmlns="http://www.w3.org/2000/svg">
<path fill-rule="evenodd" clip-rule="evenodd" d="M1 12C1 5.92487 5.92487 1 12 1C18.0751 1 23 5.92487 23 12C23 18.0751 18.0751 23 12 23C5.92487 23 1 18.0751 1 12ZM12 3C7.02943 3 3 7.02943 3 12C3 16.9706 7.02943 21 12 21C16.9706 21 21 16.9706 21 12C21 7.02943 16.9706 3 12 3ZM12 6.5C12.5523 6.5 13 6.94772 13 7.5V14.0858L15.7929 11.2929C16.1834 10.9024 16.8166 10.9024 17.2071 11.2929C17.5976 11.6834 17.5976 12.3166 17.2071 12.7071L12.7071 17.2071C12.3166 17.5976 11.6834 17.5976 11.2929 17.2071L6.79289 12.7071C6.40237 12.3166 6.40237 11.6834 6.79289 11.2929C7.18342 10.9024 7.81658 10.9024 8.20711 11.2929L11 14.0858V7.5C11 6.94772 11.4477 6.5 12 6.5Z" fill="#00A3FF"/>
</svg>
