<svg width="19" height="19" viewBox="0 0 19 19" fill="none" xmlns="http://www.w3.org/2000/svg">
<path fill-rule="evenodd" clip-rule="evenodd" d="M9.5 1.58333C5.12774 1.58333 1.58333 5.12774 1.58333 9.5C1.58333 13.8723 5.12774 17.4167 9.5 17.4167C13.8723 17.4167 17.4167 13.8723 17.4167 9.5C17.4167 5.12774 13.8723 1.58333 9.5 1.58333ZM0 9.5C0 4.25331 4.25331 0 9.5 0C14.7467 0 19 4.25331 19 9.5C19 14.7467 14.7467 19 9.5 19C4.25331 19 0 14.7467 0 9.5Z" fill="#C0C0C0" fill-opacity="0.65"/>
<path fill-rule="evenodd" clip-rule="evenodd" d="M7.59324 17.9991C7.51669 17.9003 7.51669 17.0197 7.59324 15.3575C6.77316 15.3858 6.25501 15.3289 6.03881 15.1868C5.71454 14.9735 5.38988 14.3159 5.10183 13.8525C4.81378 13.389 4.17443 13.3158 3.91627 13.2122C3.6581 13.1086 3.59329 12.6862 4.62766 13.0056C5.66205 13.325 5.71248 14.1948 6.03881 14.3982C6.36513 14.6016 7.14524 14.5126 7.49888 14.3497C7.85248 14.1867 7.82647 13.5801 7.88953 13.3398C7.96925 13.1155 7.68824 13.0657 7.68207 13.0639C7.33686 13.0639 5.52331 12.6695 5.02516 10.9133C4.52704 9.15716 5.16873 8.00928 5.51104 7.51583C5.73924 7.18686 5.71905 6.48576 5.45048 5.41245C6.42566 5.28784 7.17817 5.59477 7.70812 6.33332C7.70863 6.33756 8.40284 5.92051 9.49997 5.92051C10.5971 5.92051 10.9864 6.26021 11.2868 6.33332C11.5871 6.40643 11.8274 5.04053 13.6826 5.41245C13.2953 6.17372 12.9709 7.12499 13.2185 7.51583C13.466 7.90668 14.4377 9.14952 13.8408 10.9133C13.4429 12.0892 12.6607 12.8061 11.4943 13.0639C11.3605 13.1066 11.2936 13.1755 11.2936 13.2705C11.2936 13.413 11.4744 13.4286 11.735 14.0962C11.9086 14.5414 11.9212 15.8127 11.7726 17.9102C11.3962 18.006 11.1033 18.0704 10.8941 18.1033C10.523 18.1616 10.1201 18.1943 9.72425 18.2069C9.32842 18.2195 9.19095 18.2181 8.64371 18.1672C8.27887 18.1332 7.92871 18.0772 7.59324 17.9991Z" fill="#C0C0C0" fill-opacity="0.65"/>
</svg>
