<svg width="20" height="19" viewBox="0 0 20 19" fill="none" xmlns="http://www.w3.org/2000/svg">
<path d="M14.1667 2.375H5.83333C3.99238 2.375 2.5 3.79276 2.5 5.54167V13.4583C2.5 15.2072 3.99238 16.625 5.83333 16.625H14.1667C16.0076 16.625 17.5 15.2072 17.5 13.4583V5.54167C17.5 3.79276 16.0076 2.375 14.1667 2.375Z" fill="#C0C0C0" fill-opacity="0.65"/>
<path d="M10.0001 12.6667C11.841 12.6667 13.3334 11.249 13.3334 9.50004C13.3334 7.75113 11.841 6.33337 10.0001 6.33337C8.15912 6.33337 6.66675 7.75113 6.66675 9.50004C6.66675 11.249 8.15912 12.6667 10.0001 12.6667Z" fill="black"/>
<path d="M14.5833 5.93746C15.0436 5.93746 15.4167 5.58303 15.4167 5.14579C15.4167 4.70856 15.0436 4.35413 14.5833 4.35413C14.1231 4.35413 13.75 4.70856 13.75 5.14579C13.75 5.58303 14.1231 5.93746 14.5833 5.93746Z" fill="black"/>
</svg>
