<svg width="20" height="20" viewBox="0 0 20 20" fill="none" xmlns="http://www.w3.org/2000/svg">
<path d="M3.74992 5.00008C4.67039 5.00008 5.41659 4.25389 5.41659 3.33341C5.41659 2.41294 4.67039 1.66675 3.74992 1.66675C2.82944 1.66675 2.08325 2.41294 2.08325 3.33341C2.08325 4.25389 2.82944 5.00008 3.74992 5.00008Z" fill="#7D7D7D"/>
<path d="M5.41659 7.5H2.08325V17.9167H5.41659V7.5Z" fill="#7D7D7D"/>
<path d="M11.6667 17.9167H8.75V12.0833C8.75 9.55204 10.802 7.5 13.3333 7.5C15.8646 7.5 17.9167 9.55204 17.9167 12.0833V17.9167H15V12.0052C15 11.0848 14.2538 10.3385 13.3333 10.3385C12.4129 10.3385 11.6667 11.0848 11.6667 12.0052V17.9167Z" fill="#7D7D7D"/>
</svg>
