<svg width="16" height="16" viewBox="0 0 16 16" fill="none" xmlns="http://www.w3.org/2000/svg">
<path fill-rule="evenodd" clip-rule="evenodd" d="M2.33341 2.66663H13.6667C14.0349 2.66663 14.3334 2.9651 14.3334 3.33329V12.6666C14.3334 13.0348 14.0349 13.3333 13.6667 13.3333H2.33341C1.96522 13.3333 1.66675 13.0348 1.66675 12.6666V3.33329C1.66675 2.9651 1.96522 2.66663 2.33341 2.66663Z" stroke="#87F87D" stroke-opacity="0.85" stroke-width="2" stroke-linecap="round" stroke-linejoin="round"/>
<path d="M4.8335 6C5.10964 6 5.3335 5.77614 5.3335 5.5C5.3335 5.22386 5.10964 5 4.8335 5C4.55735 5 4.3335 5.22386 4.3335 5.5C4.3335 5.77614 4.55735 6 4.8335 6Z" stroke="#87F87D" stroke-opacity="0.85" stroke-width="2" stroke-linecap="round" stroke-linejoin="round"/>
<path d="M5.00008 8L6.66675 9.33333L8.66675 7L14.3334 11.3333V12.6667C14.3334 13.0349 14.0349 13.3333 13.6667 13.3333H2.33341C1.96522 13.3333 1.66675 13.0349 1.66675 12.6667V11.3333L5.00008 8Z" fill="#87F87D" fill-opacity="0.85" stroke="#87F87D" stroke-opacity="0.85" stroke-width="2" stroke-linejoin="round"/>
</svg>
