<svg width="16" height="16" viewBox="0 0 16 16" fill="none" xmlns="http://www.w3.org/2000/svg">
<path d="M12.6665 1.33337H3.33317C2.96498 1.33337 2.6665 1.63185 2.6665 2.00004V14C2.6665 14.3682 2.96498 14.6667 3.33317 14.6667H12.6665C13.0347 14.6667 13.3332 14.3682 13.3332 14V2.00004C13.3332 1.63185 13.0347 1.33337 12.6665 1.33337Z" fill="#00C2FF" stroke="#00C2FF" stroke-width="2" stroke-linejoin="round"/>
<path d="M7 4.66663H11" stroke="#212121" stroke-width="2" stroke-linecap="round" stroke-linejoin="round"/>
<path d="M7 8H11" stroke="#212121" stroke-width="2" stroke-linecap="round" stroke-linejoin="round"/>
<path d="M7 11.3334H11" stroke="#212121" stroke-width="2" stroke-linecap="round" stroke-linejoin="round"/>
<path fill-rule="evenodd" clip-rule="evenodd" d="M5.00016 5.33333C5.36836 5.33333 5.66683 5.03487 5.66683 4.66667C5.66683 4.29847 5.36836 4 5.00016 4C4.63196 4 4.3335 4.29847 4.3335 4.66667C4.3335 5.03487 4.63196 5.33333 5.00016 5.33333Z" fill="#212121"/>
<path fill-rule="evenodd" clip-rule="evenodd" d="M5.00016 8.66671C5.36836 8.66671 5.66683 8.36824 5.66683 8.00004C5.66683 7.63184 5.36836 7.33337 5.00016 7.33337C4.63196 7.33337 4.3335 7.63184 4.3335 8.00004C4.3335 8.36824 4.63196 8.66671 5.00016 8.66671Z" fill="#212121"/>
<path fill-rule="evenodd" clip-rule="evenodd" d="M5.00016 12C5.36836 12 5.66683 11.7015 5.66683 11.3333C5.66683 10.9651 5.36836 10.6666 5.00016 10.6666C4.63196 10.6666 4.3335 10.9651 4.3335 11.3333C4.3335 11.7015 4.63196 12 5.00016 12Z" fill="#212121"/>
</svg>
