<svg width="16" height="16" viewBox="0 0 16 16" fill="none" xmlns="http://www.w3.org/2000/svg">
<path d="M6.33341 2.33329L6.84555 1.9065C6.71891 1.75451 6.53128 1.66663 6.33341 1.66663V2.33329ZM8.00008 4.33329L7.48795 4.76009C7.61458 4.91209 7.80221 4.99996 8.00008 4.99996V4.33329ZM1.33341 13.6666H0.666748C0.666748 14.0033 0.917791 14.2872 1.25196 14.3283C1.58612 14.3694 1.89852 14.155 1.98018 13.8283L1.33341 13.6666ZM3.00008 6.99996V6.33329C2.69417 6.33329 2.42751 6.54149 2.35332 6.83826L3.00008 6.99996ZM13.3334 6.99996V7.66663C13.7016 7.66663 14.0001 7.36816 14.0001 6.99996H13.3334ZM2.00008 2.99996H6.33341V1.66663H2.00008V2.99996ZM5.82128 2.76008L7.48795 4.76009L8.51221 3.90649L6.84555 1.9065L5.82128 2.76008ZM8.00008 4.99996H12.6667V3.66663H8.00008V4.99996ZM2.00008 13.6666V2.99996H0.666748V13.6666H2.00008ZM2.35332 6.83826L0.686651 13.5049L1.98018 13.8283L3.64685 7.16166L2.35332 6.83826ZM13.3334 6.33329H3.00008V7.66663H13.3334V6.33329ZM12.6667 4.99996V6.99996H14.0001V4.99996H12.6667ZM12.6667 4.99996H14.0001C14.0001 4.26359 13.4031 3.66663 12.6667 3.66663V4.99996ZM2.00008 1.66663C1.2637 1.66663 0.666748 2.26358 0.666748 2.99996H2.00008V1.66663Z" fill="#FFD96A"/>
<path fill-rule="evenodd" clip-rule="evenodd" d="M14.6666 7H13.3333H2.99992L1.33325 13.6667" fill="#FFD96A"/>
<path d="M1.33325 13.6667H13.3333L14.6666 7H13.3333H2.99992L1.33325 13.6667Z" fill="#FFD96A"/>
<path d="M13.3334 13.6667V14.3334C13.6512 14.3334 13.9248 14.1091 13.9872 13.7974L13.3334 13.6667ZM1.33342 13.6667L0.686661 13.505C0.636868 13.7042 0.681611 13.9152 0.807951 14.077C0.934288 14.2388 1.12813 14.3334 1.33342 14.3334V13.6667ZM14.6668 7.00004L15.3205 7.13077C15.3597 6.93494 15.309 6.73184 15.1823 6.57737C15.0557 6.42291 14.8665 6.33337 14.6668 6.33337V7.00004ZM3.00009 7.00004V6.33337C2.69417 6.33337 2.42752 6.54157 2.35333 6.83834L3.00009 7.00004ZM13.3334 13H1.33342V14.3334H13.3334V13ZM2.35333 6.83834L0.686661 13.505L1.98018 13.8284L3.64685 7.16174L2.35333 6.83834ZM14.013 6.86931L12.6797 13.536L13.9872 13.7974L15.3205 7.13077L14.013 6.86931ZM14.6668 6.33337H13.3334V7.66671H14.6668V6.33337ZM13.3334 6.33337H3.00009V7.66671H13.3334V6.33337Z" fill="#FFD96A"/>
</svg>
