<svg width="20" height="20" viewBox="0 0 20 20" fill="none" xmlns="http://www.w3.org/2000/svg">
<path fill-rule="evenodd" clip-rule="evenodd" d="M1.41275 6.55454L1.41254 6.55707C1.30414 7.84663 1.24902 8.98467 1.24902 9.96829C1.24902 10.9639 1.30548 12.1177 1.41652 13.4267C1.55587 15.0695 2.87521 16.3636 4.52038 16.4712C6.50945 16.6013 8.33599 16.6667 9.99902 16.6667C11.6623 16.6667 13.4895 16.6013 15.4796 16.4711C17.1254 16.3635 18.445 15.0686 18.5837 13.4252C18.6933 12.1254 18.749 10.9722 18.749 9.96829C18.749 8.97653 18.6947 7.83911 18.5876 6.55862C18.4485 4.89455 17.0996 3.59023 15.4317 3.50712C13.1162 3.39175 11.303 3.33337 9.99902 3.33337C8.69519 3.33337 6.88265 3.39171 4.5682 3.50707C2.90187 3.59014 1.55373 4.89236 1.41275 6.55454ZM8.11916 7.50625C8.48603 6.96066 9.22571 6.81573 9.77132 7.18258L12.5202 9.03092C12.6508 9.11878 12.7627 9.23169 12.8492 9.36252C13.2117 9.91092 13.0611 10.6496 12.5125 11.0121L9.76364 12.8289C9.56881 12.9577 9.34037 13.0263 9.10706 13.0263C8.44962 13.0263 7.91661 12.4933 7.91661 11.8359V8.17051C7.91661 7.93378 7.98739 7.70238 8.11916 7.50625Z" fill="#C0C0C0" fill-opacity="0.65"/>
</svg>
